<svg xmlns="http://www.w3.org/2000/svg" xmlns:xlink="http://www.w3.org/1999/xlink" viewBox="0,0,256,256" width="50px" height="50px"><g fill="#ffffff" fill-rule="nonzero" stroke="none" stroke-width="1" stroke-linecap="butt" stroke-linejoin="miter" stroke-miterlimit="10" stroke-dasharray="" stroke-dashoffset="0" font-family="none" font-weight="none" font-size="none" text-anchor="none" style="mix-blend-mode: normal"><g transform="scale(5.12,5.12)"><path d="M24.99414,2c-0.02152,0.00061 -0.04302,0.00191 -0.06445,0.00391c-0.0137,0.00102 -0.02737,0.00232 -0.04102,0.00391c-0.02619,0.00288 -0.05225,0.00679 -0.07812,0.01172c-0.03292,0.00617 -0.06552,0.01399 -0.09766,0.02344c-0.03043,0.00899 -0.06041,0.01941 -0.08984,0.03125c-0.00261,0.00129 -0.00521,0.00259 -0.00781,0.00391c-0.00983,0.00375 -0.01959,0.00766 -0.0293,0.01172c-0.01051,0.00503 -0.02093,0.01024 -0.03125,0.01563c-0.1809,0.08901 -0.33068,0.23062 -0.42969,0.40625l0.10547,-0.21094l-19.75391,12.10547c-0.29596,0.18183 -0.47637,0.50421 -0.47656,0.85156v19.50977c0.00019,0.34735 0.18061,0.66973 0.47656,0.85156l6,3.67773c0.3088,0.18963 0.69602,0.19738 1.01216,0.02026c0.31614,-0.17712 0.51174,-0.5114 0.51128,-0.87377v-19.26562l13,-7.9668l13,7.9668v19.26563c-0.00046,0.36238 0.19514,0.69665 0.51128,0.87377c0.31614,0.17712 0.70336,0.16937 1.01216,-0.02026l6,-3.67773c0.29596,-0.18183 0.47637,-0.50421 0.47656,-0.85156v-19.50977c-0.00019,-0.34735 -0.18061,-0.66973 -0.47656,-0.85156l-19.94922,-12.22656h-0.00195c-0.04044,-0.02782 -0.08287,-0.05263 -0.12695,-0.07422c-0.02677,-0.01359 -0.05414,-0.02598 -0.08203,-0.03711c-0.00325,-0.00132 -0.0065,-0.00262 -0.00977,-0.00391c-0.00325,-0.00132 -0.0065,-0.00262 -0.00977,-0.00391c-0.02825,-0.00974 -0.05693,-0.01822 -0.08594,-0.02539c-0.03028,-0.00794 -0.06091,-0.01446 -0.0918,-0.01953c-0.00195,-0.00066 -0.0039,-0.00131 -0.00586,-0.00195c-0.0026,-0.00001 -0.00521,-0.00001 -0.00781,0c-0.02331,-0.00409 -0.04677,-0.00734 -0.07031,-0.00977c-0.01626,-0.00105 -0.03254,-0.0017 -0.04883,-0.00195c-0.01301,-0.00091 -0.02603,-0.00156 -0.03906,-0.00195zM24.10938,3.45117c0.08381,0.16771 0.21308,0.30848 0.37305,0.40625l0.4668,0.28711l-0.39453,0.19727zM25.89063,3.45117l-0.44531,0.89063l-0.39453,-0.19727l0.4668,-0.28711c0.15997,-0.09777 0.28923,-0.23854 0.37305,-0.40625zM24.55273,3.89453c0.2692,0.13494 0.58488,0.1414 0.85938,0.01758l-0.41211,0.20703zM25,4.17383l19,11.64453v18.38867l-4,2.45117v-18.04102c-0.00019,-0.34735 -0.18061,-0.66973 -0.47656,-0.85156l-14,-8.58008c-0.32109,-0.19723 -0.72578,-0.19723 -1.04688,0l-14,8.58008c-0.29596,0.18183 -0.47637,0.50421 -0.47656,0.85156v18.04102l-4,-2.45117v-18.38867zM21.9707,16.95898c-0.17468,0.00482 -0.34505,0.05532 -0.49414,0.14648l-6,3.67773c-0.29596,0.18183 -0.47637,0.50421 -0.47656,0.85156v19.87305c-0.00007,0.34844 0.18122,0.67179 0.47852,0.85352l8.85352,5.42188l-0.11133,-0.14844c0.09441,0.12493 0.21684,0.22595 0.35742,0.29492c0.05937,0.02953 0.12152,0.05308 0.18555,0.07031c0.03217,0.00879 0.06477,0.01596 0.09766,0.02148c0.02784,0.00444 0.05586,0.0077 0.08398,0.00977c0.0052,0.00069 0.01041,0.00134 0.01563,0.00195c0.00391,0.00002 0.00781,0.00002 0.01172,0c0.01821,0.00115 0.03644,0.0018 0.05469,0.00195c0.01694,-0.00022 0.03387,-0.00087 0.05078,-0.00195c0.01631,-0.0009 0.03259,-0.00221 0.04883,-0.00391c0.02224,-0.00251 0.04439,-0.00577 0.06641,-0.00977c0.03289,-0.00553 0.06548,-0.0127 0.09766,-0.02148c0.03109,-0.00893 0.06172,-0.01936 0.0918,-0.03125c0.00065,0 0.0013,0 0.00195,0c0.0013,-0.00065 0.00261,-0.0013 0.00391,-0.00195c0.02719,-0.01055 0.05391,-0.02228 0.08008,-0.03516c0.1809,-0.08901 0.33068,-0.23062 0.42969,-0.40625l-0.10547,0.20898l8.73047,-5.37305c0.29596,-0.18183 0.47637,-0.50421 0.47656,-0.85156v-19.87305c-0.00019,-0.34735 -0.18061,-0.66973 -0.47656,-0.85156l-6,-3.67773c-0.3085,-0.18944 -0.6953,-0.19737 -1.01131,-0.02073c-0.31601,0.17664 -0.51188,0.51027 -0.51213,0.87229v19.65625l-1.97656,1.21094l-2.02344,-1.24023v-19.62695c-0.00044,-0.27002 -0.11005,-0.5284 -0.3039,-0.71637c-0.19386,-0.18797 -0.45548,-0.28956 -0.72539,-0.28168zM21,19.74414v18.40039c-0.00007,0.34844 0.18122,0.67179 0.47852,0.85352l3.02148,1.85156c0.32061,0.19643 0.72431,0.19643 1.04492,0l2.97852,-1.82422c0.29655,-0.1822 0.47705,-0.50547 0.47656,-0.85352v-18.42773l4,2.45117v18.75391l-7.97852,4.91016l-8.02148,-4.91211v-18.75195zM24.57813,45.69336l0.39453,0.19727l-0.4707,0.28906c-0.14253,0.08785 -0.26073,0.21007 -0.34375,0.35547zM25.32031,45.76758l0.49805,0.66406c-0.07556,-0.10141 -0.16967,-0.18757 -0.27734,-0.25391l-0.46875,-0.28711zM25.02344,45.91602l0.44727,0.22266c-0.27278,-0.13618 -0.59279,-0.1405 -0.86914,-0.01172z"></path></g></g></svg>